<mxfile host="app.diagrams.net" agent="Mozilla/5.0 (Windows NT 6.1; Win64; x64; rv:109.0) Gecko/20100101 Firefox/115.0" version="26.0.11">
  <diagram name="第 1 页" id="P5GKuLmZve2yfpyJQXsA">
    <mxGraphModel dx="1434" dy="754" grid="1" gridSize="10" guides="1" tooltips="1" connect="1" arrows="1" fold="1" page="1" pageScale="1" pageWidth="827" pageHeight="1169" math="0" shadow="0">
      <root>
        <mxCell id="0" />
        <mxCell id="1" parent="0" />
        <mxCell id="Bl0EzrdsrcNXTwOKAy7L-2" value="跨部门流程图" style="swimlane;childLayout=stackLayout;resizeParent=1;resizeParentMax=0;horizontal=1;startSize=20;horizontalStack=0;html=1;" vertex="1" parent="1">
          <mxGeometry x="60" y="30" width="720" height="1880" as="geometry" />
        </mxCell>
        <mxCell id="Bl0EzrdsrcNXTwOKAy7L-3" value="&lt;div&gt;专家解读&lt;/div&gt;" style="swimlane;startSize=20;horizontal=0;html=1;" vertex="1" parent="Bl0EzrdsrcNXTwOKAy7L-2">
          <mxGeometry y="20" width="720" height="650" as="geometry" />
        </mxCell>
        <mxCell id="Bl0EzrdsrcNXTwOKAy7L-4" value="运营主管" style="swimlane;" vertex="1" parent="Bl0EzrdsrcNXTwOKAy7L-3">
          <mxGeometry x="220" width="100" height="390" as="geometry">
            <mxRectangle x="10" y="250" width="90" height="30" as="alternateBounds" />
          </mxGeometry>
        </mxCell>
        <mxCell id="Bl0EzrdsrcNXTwOKAy7L-77" value="存档专家解读报告" style="rounded=0;whiteSpace=wrap;html=1;" vertex="1" parent="Bl0EzrdsrcNXTwOKAy7L-4">
          <mxGeometry x="15" y="45" width="70" height="50" as="geometry" />
        </mxCell>
        <mxCell id="Bl0EzrdsrcNXTwOKAy7L-5" value="专家医生" style="swimlane;startSize=23;" vertex="1" parent="Bl0EzrdsrcNXTwOKAy7L-3">
          <mxGeometry x="120" width="100" height="390" as="geometry">
            <mxRectangle x="10" y="250" width="90" height="30" as="alternateBounds" />
          </mxGeometry>
        </mxCell>
        <mxCell id="Bl0EzrdsrcNXTwOKAy7L-62" style="edgeStyle=orthogonalEdgeStyle;rounded=0;orthogonalLoop=1;jettySize=auto;html=1;exitX=0.5;exitY=1;exitDx=0;exitDy=0;entryX=0.5;entryY=0;entryDx=0;entryDy=0;" edge="1" parent="Bl0EzrdsrcNXTwOKAy7L-5" source="Bl0EzrdsrcNXTwOKAy7L-57" target="Bl0EzrdsrcNXTwOKAy7L-61">
          <mxGeometry relative="1" as="geometry" />
        </mxCell>
        <mxCell id="Bl0EzrdsrcNXTwOKAy7L-57" value="确定是否符合服务条件" style="rhombus;whiteSpace=wrap;html=1;" vertex="1" parent="Bl0EzrdsrcNXTwOKAy7L-5">
          <mxGeometry x="10" y="130" width="80" height="80" as="geometry" />
        </mxCell>
        <mxCell id="Bl0EzrdsrcNXTwOKAy7L-64" style="edgeStyle=orthogonalEdgeStyle;rounded=0;orthogonalLoop=1;jettySize=auto;html=1;exitX=0.5;exitY=1;exitDx=0;exitDy=0;entryX=0.5;entryY=0;entryDx=0;entryDy=0;" edge="1" parent="Bl0EzrdsrcNXTwOKAy7L-5" source="Bl0EzrdsrcNXTwOKAy7L-61" target="Bl0EzrdsrcNXTwOKAy7L-63">
          <mxGeometry relative="1" as="geometry" />
        </mxCell>
        <mxCell id="Bl0EzrdsrcNXTwOKAy7L-61" value="确定产品类型" style="rounded=0;whiteSpace=wrap;html=1;" vertex="1" parent="Bl0EzrdsrcNXTwOKAy7L-5">
          <mxGeometry x="5" y="240" width="90" height="30" as="geometry" />
        </mxCell>
        <mxCell id="Bl0EzrdsrcNXTwOKAy7L-68" value="" style="edgeStyle=orthogonalEdgeStyle;rounded=0;orthogonalLoop=1;jettySize=auto;html=1;" edge="1" parent="Bl0EzrdsrcNXTwOKAy7L-5" source="Bl0EzrdsrcNXTwOKAy7L-66" target="Bl0EzrdsrcNXTwOKAy7L-57">
          <mxGeometry relative="1" as="geometry" />
        </mxCell>
        <mxCell id="Bl0EzrdsrcNXTwOKAy7L-66" value="3个工作日内出具专家解读报告" style="shape=document;whiteSpace=wrap;html=1;boundedLbl=1;" vertex="1" parent="Bl0EzrdsrcNXTwOKAy7L-5">
          <mxGeometry x="10" y="35" width="80" height="70" as="geometry" />
        </mxCell>
        <mxCell id="Bl0EzrdsrcNXTwOKAy7L-63" value="解读报告发客户经理邮箱" style="shape=document;whiteSpace=wrap;html=1;boundedLbl=1;" vertex="1" parent="Bl0EzrdsrcNXTwOKAy7L-5">
          <mxGeometry x="7.5" y="300" width="85" height="60" as="geometry" />
        </mxCell>
        <mxCell id="Bl0EzrdsrcNXTwOKAy7L-6" value="客户经理" style="swimlane;" vertex="1" parent="Bl0EzrdsrcNXTwOKAy7L-3">
          <mxGeometry x="20" width="100" height="390" as="geometry">
            <mxRectangle x="10" y="250" width="90" height="30" as="alternateBounds" />
          </mxGeometry>
        </mxCell>
        <mxCell id="Bl0EzrdsrcNXTwOKAy7L-54" value="客户体检报告、客户问询信息表发医生邮箱" style="rounded=1;whiteSpace=wrap;html=1;" vertex="1" parent="Bl0EzrdsrcNXTwOKAy7L-6">
          <mxGeometry x="10" y="40" width="80" height="60" as="geometry" />
        </mxCell>
        <mxCell id="Bl0EzrdsrcNXTwOKAy7L-59" value="和客户解释" style="rounded=1;whiteSpace=wrap;html=1;" vertex="1" parent="Bl0EzrdsrcNXTwOKAy7L-6">
          <mxGeometry x="15" y="150" width="70" height="40" as="geometry" />
        </mxCell>
        <mxCell id="Bl0EzrdsrcNXTwOKAy7L-69" value="客户确认产品类型" style="rounded=0;whiteSpace=wrap;html=1;" vertex="1" parent="Bl0EzrdsrcNXTwOKAy7L-6">
          <mxGeometry x="12.5" y="310" width="70" height="40" as="geometry" />
        </mxCell>
        <mxCell id="Bl0EzrdsrcNXTwOKAy7L-7" value="生产主管" style="swimlane;" vertex="1" parent="Bl0EzrdsrcNXTwOKAy7L-3">
          <mxGeometry x="320" width="100" height="390" as="geometry">
            <mxRectangle x="10" y="250" width="90" height="30" as="alternateBounds" />
          </mxGeometry>
        </mxCell>
        <mxCell id="Bl0EzrdsrcNXTwOKAy7L-8" value="质检部" style="swimlane;" vertex="1" parent="Bl0EzrdsrcNXTwOKAy7L-3">
          <mxGeometry x="420" width="100" height="390" as="geometry">
            <mxRectangle x="10" y="250" width="90" height="30" as="alternateBounds" />
          </mxGeometry>
        </mxCell>
        <mxCell id="Bl0EzrdsrcNXTwOKAy7L-9" value="第三方机构/诊所" style="swimlane;" vertex="1" parent="Bl0EzrdsrcNXTwOKAy7L-3">
          <mxGeometry x="520" width="100" height="390" as="geometry">
            <mxRectangle x="10" y="250" width="90" height="30" as="alternateBounds" />
          </mxGeometry>
        </mxCell>
        <mxCell id="Bl0EzrdsrcNXTwOKAy7L-10" value="财务部" style="swimlane;" vertex="1" parent="Bl0EzrdsrcNXTwOKAy7L-3">
          <mxGeometry x="620" width="100" height="390" as="geometry">
            <mxRectangle x="10" y="250" width="90" height="30" as="alternateBounds" />
          </mxGeometry>
        </mxCell>
        <mxCell id="Bl0EzrdsrcNXTwOKAy7L-55" style="edgeStyle=orthogonalEdgeStyle;rounded=0;orthogonalLoop=1;jettySize=auto;html=1;exitX=1;exitY=0.5;exitDx=0;exitDy=0;entryX=0;entryY=0.5;entryDx=0;entryDy=0;" edge="1" parent="Bl0EzrdsrcNXTwOKAy7L-3" source="Bl0EzrdsrcNXTwOKAy7L-54">
          <mxGeometry relative="1" as="geometry">
            <mxPoint x="130" y="70" as="targetPoint" />
          </mxGeometry>
        </mxCell>
        <mxCell id="Bl0EzrdsrcNXTwOKAy7L-60" style="edgeStyle=orthogonalEdgeStyle;rounded=0;orthogonalLoop=1;jettySize=auto;html=1;exitX=0;exitY=0.5;exitDx=0;exitDy=0;entryX=1;entryY=0.5;entryDx=0;entryDy=0;" edge="1" parent="Bl0EzrdsrcNXTwOKAy7L-3" source="Bl0EzrdsrcNXTwOKAy7L-57" target="Bl0EzrdsrcNXTwOKAy7L-59">
          <mxGeometry relative="1" as="geometry" />
        </mxCell>
        <mxCell id="Bl0EzrdsrcNXTwOKAy7L-78" value="" style="edgeStyle=orthogonalEdgeStyle;rounded=0;orthogonalLoop=1;jettySize=auto;html=1;" edge="1" parent="Bl0EzrdsrcNXTwOKAy7L-3" source="Bl0EzrdsrcNXTwOKAy7L-66" target="Bl0EzrdsrcNXTwOKAy7L-77">
          <mxGeometry relative="1" as="geometry" />
        </mxCell>
        <mxCell id="Bl0EzrdsrcNXTwOKAy7L-11" value="预约采样服务" style="swimlane;startSize=20;horizontal=0;html=1;" vertex="1" parent="Bl0EzrdsrcNXTwOKAy7L-3">
          <mxGeometry y="390" width="720" height="260" as="geometry" />
        </mxCell>
        <mxCell id="Bl0EzrdsrcNXTwOKAy7L-12" value="" style="swimlane;startSize=0;" vertex="1" parent="Bl0EzrdsrcNXTwOKAy7L-11">
          <mxGeometry x="20" width="100" height="260" as="geometry">
            <mxRectangle x="20" width="90" height="30" as="alternateBounds" />
          </mxGeometry>
        </mxCell>
        <mxCell id="Bl0EzrdsrcNXTwOKAy7L-84" value="" style="edgeStyle=orthogonalEdgeStyle;rounded=0;orthogonalLoop=1;jettySize=auto;html=1;" edge="1" parent="Bl0EzrdsrcNXTwOKAy7L-12" source="Bl0EzrdsrcNXTwOKAy7L-79" target="Bl0EzrdsrcNXTwOKAy7L-83">
          <mxGeometry relative="1" as="geometry" />
        </mxCell>
        <mxCell id="Bl0EzrdsrcNXTwOKAy7L-79" value="客户经理与运营主管确认近期可预约时间" style="rounded=0;whiteSpace=wrap;html=1;" vertex="1" parent="Bl0EzrdsrcNXTwOKAy7L-12">
          <mxGeometry x="12.5" y="20" width="70" height="60" as="geometry" />
        </mxCell>
        <mxCell id="Bl0EzrdsrcNXTwOKAy7L-83" value="发送预约单" style="rounded=0;whiteSpace=wrap;html=1;fillColor=#f8cecc;strokeColor=#b85450;" vertex="1" parent="Bl0EzrdsrcNXTwOKAy7L-12">
          <mxGeometry x="12.5" y="110" width="70" height="40" as="geometry" />
        </mxCell>
        <mxCell id="Bl0EzrdsrcNXTwOKAy7L-13" value="" style="swimlane;startSize=0;" vertex="1" parent="Bl0EzrdsrcNXTwOKAy7L-11">
          <mxGeometry x="120" width="100" height="260" as="geometry">
            <mxRectangle x="20" width="90" height="30" as="alternateBounds" />
          </mxGeometry>
        </mxCell>
        <mxCell id="Bl0EzrdsrcNXTwOKAy7L-14" value="" style="swimlane;startSize=0;" vertex="1" parent="Bl0EzrdsrcNXTwOKAy7L-11">
          <mxGeometry x="220" width="100" height="260" as="geometry">
            <mxRectangle x="20" width="90" height="30" as="alternateBounds" />
          </mxGeometry>
        </mxCell>
        <mxCell id="Bl0EzrdsrcNXTwOKAy7L-15" value="" style="swimlane;startSize=0;" vertex="1" parent="Bl0EzrdsrcNXTwOKAy7L-11">
          <mxGeometry x="320" width="100" height="260" as="geometry">
            <mxRectangle x="20" width="90" height="30" as="alternateBounds" />
          </mxGeometry>
        </mxCell>
        <mxCell id="Bl0EzrdsrcNXTwOKAy7L-16" value="" style="swimlane;startSize=0;" vertex="1" parent="Bl0EzrdsrcNXTwOKAy7L-11">
          <mxGeometry x="420" width="100" height="260" as="geometry">
            <mxRectangle x="20" width="90" height="30" as="alternateBounds" />
          </mxGeometry>
        </mxCell>
        <mxCell id="Bl0EzrdsrcNXTwOKAy7L-17" value="" style="swimlane;startSize=0;" vertex="1" parent="Bl0EzrdsrcNXTwOKAy7L-11">
          <mxGeometry x="520" width="100" height="260" as="geometry">
            <mxRectangle x="20" width="90" height="30" as="alternateBounds" />
          </mxGeometry>
        </mxCell>
        <mxCell id="Bl0EzrdsrcNXTwOKAy7L-18" value="" style="swimlane;startSize=0;" vertex="1" parent="Bl0EzrdsrcNXTwOKAy7L-11">
          <mxGeometry x="620" width="100" height="260" as="geometry">
            <mxRectangle x="20" width="90" height="30" as="alternateBounds" />
          </mxGeometry>
        </mxCell>
        <mxCell id="Bl0EzrdsrcNXTwOKAy7L-87" style="edgeStyle=orthogonalEdgeStyle;rounded=0;orthogonalLoop=1;jettySize=auto;html=1;exitX=0.5;exitY=1;exitDx=0;exitDy=0;entryX=0.5;entryY=0;entryDx=0;entryDy=0;" edge="1" parent="Bl0EzrdsrcNXTwOKAy7L-18" source="Bl0EzrdsrcNXTwOKAy7L-80" target="Bl0EzrdsrcNXTwOKAy7L-86">
          <mxGeometry relative="1" as="geometry" />
        </mxCell>
        <mxCell id="Bl0EzrdsrcNXTwOKAy7L-80" value="财务确认" style="rounded=0;whiteSpace=wrap;html=1;" vertex="1" parent="Bl0EzrdsrcNXTwOKAy7L-18">
          <mxGeometry x="18.5" y="112.5" width="63" height="35" as="geometry" />
        </mxCell>
        <mxCell id="Bl0EzrdsrcNXTwOKAy7L-86" value="发确认邮件至运营邮箱及客户经理" style="shape=document;whiteSpace=wrap;html=1;boundedLbl=1;" vertex="1" parent="Bl0EzrdsrcNXTwOKAy7L-18">
          <mxGeometry x="9.5" y="170" width="81" height="70" as="geometry" />
        </mxCell>
        <mxCell id="Bl0EzrdsrcNXTwOKAy7L-85" style="edgeStyle=orthogonalEdgeStyle;rounded=0;orthogonalLoop=1;jettySize=auto;html=1;exitX=1;exitY=0.5;exitDx=0;exitDy=0;entryX=0;entryY=0.5;entryDx=0;entryDy=0;" edge="1" parent="Bl0EzrdsrcNXTwOKAy7L-11" source="Bl0EzrdsrcNXTwOKAy7L-83" target="Bl0EzrdsrcNXTwOKAy7L-80">
          <mxGeometry relative="1" as="geometry" />
        </mxCell>
        <mxCell id="Bl0EzrdsrcNXTwOKAy7L-81" style="edgeStyle=orthogonalEdgeStyle;rounded=0;orthogonalLoop=1;jettySize=auto;html=1;exitX=0.5;exitY=1;exitDx=0;exitDy=0;entryX=0.5;entryY=0;entryDx=0;entryDy=0;" edge="1" parent="Bl0EzrdsrcNXTwOKAy7L-3" source="Bl0EzrdsrcNXTwOKAy7L-69" target="Bl0EzrdsrcNXTwOKAy7L-79">
          <mxGeometry relative="1" as="geometry" />
        </mxCell>
        <mxCell id="Bl0EzrdsrcNXTwOKAy7L-74" style="edgeStyle=orthogonalEdgeStyle;rounded=0;orthogonalLoop=1;jettySize=auto;html=1;exitX=0;exitY=0.5;exitDx=0;exitDy=0;entryX=1;entryY=0.5;entryDx=0;entryDy=0;" edge="1" parent="Bl0EzrdsrcNXTwOKAy7L-3" source="Bl0EzrdsrcNXTwOKAy7L-63" target="Bl0EzrdsrcNXTwOKAy7L-69">
          <mxGeometry relative="1" as="geometry" />
        </mxCell>
        <mxCell id="Bl0EzrdsrcNXTwOKAy7L-19" value="发送订单" style="swimlane;startSize=20;horizontal=0;html=1;" vertex="1" parent="Bl0EzrdsrcNXTwOKAy7L-2">
          <mxGeometry y="670" width="720" height="220" as="geometry" />
        </mxCell>
        <mxCell id="Bl0EzrdsrcNXTwOKAy7L-20" value="" style="swimlane;startSize=0;" vertex="1" parent="Bl0EzrdsrcNXTwOKAy7L-19">
          <mxGeometry x="20" width="100" height="220" as="geometry">
            <mxRectangle x="20" width="90" height="30" as="alternateBounds" />
          </mxGeometry>
        </mxCell>
        <mxCell id="Bl0EzrdsrcNXTwOKAy7L-21" value="" style="swimlane;startSize=0;" vertex="1" parent="Bl0EzrdsrcNXTwOKAy7L-19">
          <mxGeometry x="120" width="100" height="220" as="geometry">
            <mxRectangle x="20" width="90" height="30" as="alternateBounds" />
          </mxGeometry>
        </mxCell>
        <mxCell id="Bl0EzrdsrcNXTwOKAy7L-22" value="" style="swimlane;startSize=0;" vertex="1" parent="Bl0EzrdsrcNXTwOKAy7L-19">
          <mxGeometry x="220" width="100" height="220" as="geometry">
            <mxRectangle x="20" width="90" height="30" as="alternateBounds" />
          </mxGeometry>
        </mxCell>
        <mxCell id="Bl0EzrdsrcNXTwOKAy7L-82" value="发送生产单并截取传染病检测报告附件" style="rounded=0;whiteSpace=wrap;html=1;" vertex="1" parent="Bl0EzrdsrcNXTwOKAy7L-22">
          <mxGeometry x="12.5" y="10" width="75" height="60" as="geometry" />
        </mxCell>
        <mxCell id="Bl0EzrdsrcNXTwOKAy7L-90" value="发送服务单" style="rounded=0;whiteSpace=wrap;html=1;" vertex="1" parent="Bl0EzrdsrcNXTwOKAy7L-22">
          <mxGeometry x="10.75" y="160" width="78.5" height="50" as="geometry" />
        </mxCell>
        <mxCell id="Bl0EzrdsrcNXTwOKAy7L-23" value="" style="swimlane;startSize=0;" vertex="1" parent="Bl0EzrdsrcNXTwOKAy7L-19">
          <mxGeometry x="320" width="100" height="220" as="geometry">
            <mxRectangle x="20" width="90" height="30" as="alternateBounds" />
          </mxGeometry>
        </mxCell>
        <mxCell id="Bl0EzrdsrcNXTwOKAy7L-102" style="edgeStyle=orthogonalEdgeStyle;rounded=0;orthogonalLoop=1;jettySize=auto;html=1;exitX=0.5;exitY=1;exitDx=0;exitDy=0;entryX=0.5;entryY=0;entryDx=0;entryDy=0;" edge="1" parent="Bl0EzrdsrcNXTwOKAy7L-23" source="Bl0EzrdsrcNXTwOKAy7L-89" target="Bl0EzrdsrcNXTwOKAy7L-100">
          <mxGeometry relative="1" as="geometry" />
        </mxCell>
        <mxCell id="Bl0EzrdsrcNXTwOKAy7L-89" value="回复生产单" style="rounded=0;whiteSpace=wrap;html=1;" vertex="1" parent="Bl0EzrdsrcNXTwOKAy7L-23">
          <mxGeometry x="11.5" y="15" width="77" height="50" as="geometry" />
        </mxCell>
        <mxCell id="Bl0EzrdsrcNXTwOKAy7L-100" value="抄送QA、QC、细胞库邮箱" style="shape=document;whiteSpace=wrap;html=1;boundedLbl=1;" vertex="1" parent="Bl0EzrdsrcNXTwOKAy7L-23">
          <mxGeometry x="34" y="100" width="58.5" height="60" as="geometry" />
        </mxCell>
        <mxCell id="Bl0EzrdsrcNXTwOKAy7L-24" value="" style="swimlane;startSize=0;" vertex="1" parent="Bl0EzrdsrcNXTwOKAy7L-19">
          <mxGeometry x="420" width="100" height="220" as="geometry">
            <mxRectangle x="20" width="90" height="30" as="alternateBounds" />
          </mxGeometry>
        </mxCell>
        <mxCell id="Bl0EzrdsrcNXTwOKAy7L-25" value="" style="swimlane;startSize=0;" vertex="1" parent="Bl0EzrdsrcNXTwOKAy7L-19">
          <mxGeometry x="520" width="100" height="220" as="geometry">
            <mxRectangle x="20" width="90" height="30" as="alternateBounds" />
          </mxGeometry>
        </mxCell>
        <mxCell id="Bl0EzrdsrcNXTwOKAy7L-98" value="采样预约" style="rounded=0;whiteSpace=wrap;html=1;" vertex="1" parent="Bl0EzrdsrcNXTwOKAy7L-25">
          <mxGeometry x="10.75" y="160" width="78.5" height="50" as="geometry" />
        </mxCell>
        <mxCell id="Bl0EzrdsrcNXTwOKAy7L-26" value="" style="swimlane;startSize=0;" vertex="1" parent="Bl0EzrdsrcNXTwOKAy7L-19">
          <mxGeometry x="620" width="100" height="220" as="geometry">
            <mxRectangle x="20" width="90" height="30" as="alternateBounds" />
          </mxGeometry>
        </mxCell>
        <mxCell id="Bl0EzrdsrcNXTwOKAy7L-101" style="edgeStyle=orthogonalEdgeStyle;rounded=0;orthogonalLoop=1;jettySize=auto;html=1;exitX=1;exitY=0.5;exitDx=0;exitDy=0;entryX=0;entryY=0.5;entryDx=0;entryDy=0;" edge="1" parent="Bl0EzrdsrcNXTwOKAy7L-19" source="Bl0EzrdsrcNXTwOKAy7L-82" target="Bl0EzrdsrcNXTwOKAy7L-89">
          <mxGeometry relative="1" as="geometry" />
        </mxCell>
        <mxCell id="Bl0EzrdsrcNXTwOKAy7L-103" style="edgeStyle=orthogonalEdgeStyle;rounded=0;orthogonalLoop=1;jettySize=auto;html=1;exitX=0.5;exitY=1;exitDx=0;exitDy=0;entryX=0.5;entryY=0;entryDx=0;entryDy=0;" edge="1" parent="Bl0EzrdsrcNXTwOKAy7L-19" source="Bl0EzrdsrcNXTwOKAy7L-89" target="Bl0EzrdsrcNXTwOKAy7L-90">
          <mxGeometry relative="1" as="geometry">
            <Array as="points">
              <mxPoint x="370" y="90" />
              <mxPoint x="270" y="90" />
            </Array>
          </mxGeometry>
        </mxCell>
        <mxCell id="Bl0EzrdsrcNXTwOKAy7L-118" style="edgeStyle=orthogonalEdgeStyle;rounded=0;orthogonalLoop=1;jettySize=auto;html=1;exitX=1;exitY=0.5;exitDx=0;exitDy=0;entryX=0;entryY=0.5;entryDx=0;entryDy=0;" edge="1" parent="Bl0EzrdsrcNXTwOKAy7L-19" source="Bl0EzrdsrcNXTwOKAy7L-90" target="Bl0EzrdsrcNXTwOKAy7L-98">
          <mxGeometry relative="1" as="geometry" />
        </mxCell>
        <mxCell id="Bl0EzrdsrcNXTwOKAy7L-27" value="采样准备工作" style="swimlane;startSize=20;horizontal=0;html=1;" vertex="1" parent="Bl0EzrdsrcNXTwOKAy7L-2">
          <mxGeometry y="890" width="720" height="80" as="geometry" />
        </mxCell>
        <mxCell id="Bl0EzrdsrcNXTwOKAy7L-28" value="" style="swimlane;startSize=0;" vertex="1" parent="Bl0EzrdsrcNXTwOKAy7L-27">
          <mxGeometry x="20" width="100" height="80" as="geometry">
            <mxRectangle x="20" width="90" height="30" as="alternateBounds" />
          </mxGeometry>
        </mxCell>
        <mxCell id="Bl0EzrdsrcNXTwOKAy7L-97" value="申领合同" style="rounded=0;whiteSpace=wrap;html=1;fillColor=#fff2cc;strokeColor=#d6b656;" vertex="1" parent="Bl0EzrdsrcNXTwOKAy7L-28">
          <mxGeometry x="12.5" y="25" width="70" height="30" as="geometry" />
        </mxCell>
        <mxCell id="Bl0EzrdsrcNXTwOKAy7L-29" value="" style="swimlane;startSize=0;" vertex="1" parent="Bl0EzrdsrcNXTwOKAy7L-27">
          <mxGeometry x="120" width="100" height="80" as="geometry">
            <mxRectangle x="20" width="90" height="30" as="alternateBounds" />
          </mxGeometry>
        </mxCell>
        <mxCell id="Bl0EzrdsrcNXTwOKAy7L-30" value="" style="swimlane;startSize=0;" vertex="1" parent="Bl0EzrdsrcNXTwOKAy7L-27">
          <mxGeometry x="220" width="100" height="80" as="geometry">
            <mxRectangle x="20" width="90" height="30" as="alternateBounds" />
          </mxGeometry>
        </mxCell>
        <mxCell id="Bl0EzrdsrcNXTwOKAy7L-31" value="" style="swimlane;startSize=0;" vertex="1" parent="Bl0EzrdsrcNXTwOKAy7L-27">
          <mxGeometry x="320" width="100" height="80" as="geometry">
            <mxRectangle x="20" width="90" height="30" as="alternateBounds" />
          </mxGeometry>
        </mxCell>
        <mxCell id="Bl0EzrdsrcNXTwOKAy7L-32" value="" style="swimlane;startSize=0;" vertex="1" parent="Bl0EzrdsrcNXTwOKAy7L-27">
          <mxGeometry x="420" width="100" height="80" as="geometry">
            <mxRectangle x="20" width="90" height="30" as="alternateBounds" />
          </mxGeometry>
        </mxCell>
        <mxCell id="Bl0EzrdsrcNXTwOKAy7L-33" value="" style="swimlane;startSize=0;" vertex="1" parent="Bl0EzrdsrcNXTwOKAy7L-27">
          <mxGeometry x="520" width="100" height="80" as="geometry">
            <mxRectangle x="20" width="90" height="30" as="alternateBounds" />
          </mxGeometry>
        </mxCell>
        <mxCell id="Bl0EzrdsrcNXTwOKAy7L-34" value="" style="swimlane;startSize=0;" vertex="1" parent="Bl0EzrdsrcNXTwOKAy7L-27">
          <mxGeometry x="620" width="100" height="80" as="geometry">
            <mxRectangle x="20" width="90" height="30" as="alternateBounds" />
          </mxGeometry>
        </mxCell>
        <mxCell id="Bl0EzrdsrcNXTwOKAy7L-35" value="样本采集运输" style="swimlane;startSize=20;horizontal=0;html=1;" vertex="1" parent="Bl0EzrdsrcNXTwOKAy7L-2">
          <mxGeometry y="970" width="720" height="220" as="geometry" />
        </mxCell>
        <mxCell id="Bl0EzrdsrcNXTwOKAy7L-36" value="" style="swimlane;startSize=0;" vertex="1" parent="Bl0EzrdsrcNXTwOKAy7L-35">
          <mxGeometry x="20" width="100" height="220" as="geometry">
            <mxRectangle x="20" width="90" height="30" as="alternateBounds" />
          </mxGeometry>
        </mxCell>
        <mxCell id="Bl0EzrdsrcNXTwOKAy7L-37" value="" style="swimlane;startSize=0;" vertex="1" parent="Bl0EzrdsrcNXTwOKAy7L-35">
          <mxGeometry x="120" width="100" height="220" as="geometry">
            <mxRectangle x="20" width="90" height="30" as="alternateBounds" />
          </mxGeometry>
        </mxCell>
        <mxCell id="Bl0EzrdsrcNXTwOKAy7L-38" value="" style="swimlane;startSize=0;" vertex="1" parent="Bl0EzrdsrcNXTwOKAy7L-35">
          <mxGeometry x="220" width="100" height="220" as="geometry">
            <mxRectangle x="20" width="90" height="30" as="alternateBounds" />
          </mxGeometry>
        </mxCell>
        <mxCell id="Bl0EzrdsrcNXTwOKAy7L-39" value="" style="swimlane;startSize=0;" vertex="1" parent="Bl0EzrdsrcNXTwOKAy7L-35">
          <mxGeometry x="320" width="100" height="180" as="geometry">
            <mxRectangle x="20" width="90" height="30" as="alternateBounds" />
          </mxGeometry>
        </mxCell>
        <mxCell id="Bl0EzrdsrcNXTwOKAy7L-361" value="不合格" style="text;html=1;align=center;verticalAlign=middle;whiteSpace=wrap;rounded=0;" vertex="1" parent="Bl0EzrdsrcNXTwOKAy7L-39">
          <mxGeometry x="50" y="80" width="60" height="30" as="geometry" />
        </mxCell>
        <mxCell id="Bl0EzrdsrcNXTwOKAy7L-40" value="" style="swimlane;startSize=0;" vertex="1" parent="Bl0EzrdsrcNXTwOKAy7L-35">
          <mxGeometry x="420" width="100" height="220" as="geometry">
            <mxRectangle x="20" width="90" height="30" as="alternateBounds" />
          </mxGeometry>
        </mxCell>
        <mxCell id="Bl0EzrdsrcNXTwOKAy7L-105" value="检测样本质量" style="rhombus;whiteSpace=wrap;html=1;" vertex="1" parent="Bl0EzrdsrcNXTwOKAy7L-40">
          <mxGeometry x="10" y="65" width="80" height="80" as="geometry" />
        </mxCell>
        <mxCell id="Bl0EzrdsrcNXTwOKAy7L-360" value="合格" style="text;html=1;align=center;verticalAlign=middle;whiteSpace=wrap;rounded=0;" vertex="1" parent="Bl0EzrdsrcNXTwOKAy7L-40">
          <mxGeometry x="-0.18000000000000682" y="139" width="60" height="30" as="geometry" />
        </mxCell>
        <mxCell id="Bl0EzrdsrcNXTwOKAy7L-41" value="" style="swimlane;startSize=0;" vertex="1" parent="Bl0EzrdsrcNXTwOKAy7L-35">
          <mxGeometry x="520" width="100" height="220" as="geometry">
            <mxRectangle x="20" width="90" height="30" as="alternateBounds" />
          </mxGeometry>
        </mxCell>
        <mxCell id="Bl0EzrdsrcNXTwOKAy7L-93" value="样本运输" style="rounded=0;whiteSpace=wrap;html=1;" vertex="1" parent="Bl0EzrdsrcNXTwOKAy7L-41">
          <mxGeometry x="10.75" y="80" width="78.5" height="50" as="geometry" />
        </mxCell>
        <mxCell id="Bl0EzrdsrcNXTwOKAy7L-104" value="样本采集" style="rounded=0;whiteSpace=wrap;html=1;" vertex="1" parent="Bl0EzrdsrcNXTwOKAy7L-41">
          <mxGeometry x="10.75" y="10" width="78.5" height="50" as="geometry" />
        </mxCell>
        <mxCell id="Bl0EzrdsrcNXTwOKAy7L-113" style="edgeStyle=orthogonalEdgeStyle;rounded=0;orthogonalLoop=1;jettySize=auto;html=1;exitX=0.5;exitY=1;exitDx=0;exitDy=0;entryX=0.5;entryY=0;entryDx=0;entryDy=0;" edge="1" parent="Bl0EzrdsrcNXTwOKAy7L-41" source="Bl0EzrdsrcNXTwOKAy7L-104" target="Bl0EzrdsrcNXTwOKAy7L-93">
          <mxGeometry relative="1" as="geometry" />
        </mxCell>
        <mxCell id="Bl0EzrdsrcNXTwOKAy7L-42" value="" style="swimlane;startSize=0;" vertex="1" parent="Bl0EzrdsrcNXTwOKAy7L-35">
          <mxGeometry x="620" width="100" height="220" as="geometry">
            <mxRectangle x="20" width="90" height="30" as="alternateBounds" />
          </mxGeometry>
        </mxCell>
        <mxCell id="Bl0EzrdsrcNXTwOKAy7L-116" style="edgeStyle=orthogonalEdgeStyle;rounded=0;orthogonalLoop=1;jettySize=auto;html=1;exitX=0;exitY=0.5;exitDx=0;exitDy=0;entryX=1;entryY=0.5;entryDx=0;entryDy=0;" edge="1" parent="Bl0EzrdsrcNXTwOKAy7L-35" source="Bl0EzrdsrcNXTwOKAy7L-93" target="Bl0EzrdsrcNXTwOKAy7L-105">
          <mxGeometry relative="1" as="geometry" />
        </mxCell>
        <mxCell id="Bl0EzrdsrcNXTwOKAy7L-43" value="确认样本情况" style="swimlane;startSize=20;horizontal=0;html=1;" vertex="1" parent="Bl0EzrdsrcNXTwOKAy7L-2">
          <mxGeometry y="1190" width="720" height="250" as="geometry" />
        </mxCell>
        <mxCell id="Bl0EzrdsrcNXTwOKAy7L-44" value="" style="swimlane;startSize=0;" vertex="1" parent="Bl0EzrdsrcNXTwOKAy7L-43">
          <mxGeometry x="20" width="100" height="220" as="geometry">
            <mxRectangle x="20" width="90" height="30" as="alternateBounds" />
          </mxGeometry>
        </mxCell>
        <mxCell id="Bl0EzrdsrcNXTwOKAy7L-45" value="" style="swimlane;startSize=0;" vertex="1" parent="Bl0EzrdsrcNXTwOKAy7L-43">
          <mxGeometry x="120" width="100" height="220" as="geometry">
            <mxRectangle x="20" width="90" height="30" as="alternateBounds" />
          </mxGeometry>
        </mxCell>
        <mxCell id="Bl0EzrdsrcNXTwOKAy7L-46" value="" style="swimlane;startSize=0;" vertex="1" parent="Bl0EzrdsrcNXTwOKAy7L-43">
          <mxGeometry x="220" width="100" height="220" as="geometry">
            <mxRectangle x="20" width="90" height="30" as="alternateBounds" />
          </mxGeometry>
        </mxCell>
        <mxCell id="Bl0EzrdsrcNXTwOKAy7L-99" value="反馈至客户经理" style="rounded=0;whiteSpace=wrap;html=1;" vertex="1" parent="Bl0EzrdsrcNXTwOKAy7L-46">
          <mxGeometry x="10.75" y="77" width="78.5" height="50" as="geometry" />
        </mxCell>
        <mxCell id="Bl0EzrdsrcNXTwOKAy7L-232" value="通知财务合同完成" style="rounded=0;whiteSpace=wrap;html=1;" vertex="1" parent="Bl0EzrdsrcNXTwOKAy7L-46">
          <mxGeometry x="25" y="160" width="50" height="40" as="geometry" />
        </mxCell>
        <mxCell id="Bl0EzrdsrcNXTwOKAy7L-47" value="" style="swimlane;startSize=0;" vertex="1" parent="Bl0EzrdsrcNXTwOKAy7L-43">
          <mxGeometry x="320" y="-40" width="110" height="290" as="geometry">
            <mxRectangle x="20" width="90" height="30" as="alternateBounds" />
          </mxGeometry>
        </mxCell>
        <mxCell id="Bl0EzrdsrcNXTwOKAy7L-109" value="确认样本情况，回复订单邮件反馈第一次发放时间" style="rounded=0;whiteSpace=wrap;html=1;" vertex="1" parent="Bl0EzrdsrcNXTwOKAy7L-47">
          <mxGeometry x="10.76" y="112" width="78.5" height="60" as="geometry" />
        </mxCell>
        <mxCell id="Bl0EzrdsrcNXTwOKAy7L-219" style="edgeStyle=orthogonalEdgeStyle;rounded=0;orthogonalLoop=1;jettySize=auto;html=1;exitX=0.5;exitY=1;exitDx=0;exitDy=0;entryX=0.5;entryY=0;entryDx=0;entryDy=0;" edge="1" parent="Bl0EzrdsrcNXTwOKAy7L-47" source="Bl0EzrdsrcNXTwOKAy7L-92" target="Bl0EzrdsrcNXTwOKAy7L-109">
          <mxGeometry relative="1" as="geometry" />
        </mxCell>
        <mxCell id="Bl0EzrdsrcNXTwOKAy7L-92" value="康茵制备P0-P5" style="rounded=0;whiteSpace=wrap;html=1;" vertex="1" parent="Bl0EzrdsrcNXTwOKAy7L-47">
          <mxGeometry x="59.239999999999995" y="10" width="30" height="70" as="geometry" />
        </mxCell>
        <mxCell id="Bl0EzrdsrcNXTwOKAy7L-95" value="入库邮件发送，细胞入库后生产主管编辑入库信息发送至运营邮箱。" style="rounded=0;whiteSpace=wrap;html=1;fillColor=#fff2cc;strokeColor=#d6b656;" vertex="1" parent="Bl0EzrdsrcNXTwOKAy7L-47">
          <mxGeometry x="0.2" y="230" width="99.62" height="60" as="geometry" />
        </mxCell>
        <mxCell id="Bl0EzrdsrcNXTwOKAy7L-227" style="edgeStyle=orthogonalEdgeStyle;rounded=0;orthogonalLoop=1;jettySize=auto;html=1;exitX=0.5;exitY=1;exitDx=0;exitDy=0;" edge="1" parent="Bl0EzrdsrcNXTwOKAy7L-47" source="Bl0EzrdsrcNXTwOKAy7L-153" target="Bl0EzrdsrcNXTwOKAy7L-109">
          <mxGeometry relative="1" as="geometry" />
        </mxCell>
        <mxCell id="Bl0EzrdsrcNXTwOKAy7L-153" value="冻存复苏" style="rounded=0;whiteSpace=wrap;html=1;" vertex="1" parent="Bl0EzrdsrcNXTwOKAy7L-47">
          <mxGeometry x="14" y="10" width="26" height="70" as="geometry" />
        </mxCell>
        <mxCell id="Bl0EzrdsrcNXTwOKAy7L-236" style="edgeStyle=orthogonalEdgeStyle;rounded=0;orthogonalLoop=1;jettySize=auto;html=1;exitX=0.5;exitY=1;exitDx=0;exitDy=0;entryX=0.5;entryY=0;entryDx=0;entryDy=0;" edge="1" parent="Bl0EzrdsrcNXTwOKAy7L-47" source="Bl0EzrdsrcNXTwOKAy7L-231" target="Bl0EzrdsrcNXTwOKAy7L-95">
          <mxGeometry relative="1" as="geometry" />
        </mxCell>
        <mxCell id="Bl0EzrdsrcNXTwOKAy7L-231" value="存入液氮罐" style="rounded=0;whiteSpace=wrap;html=1;fillColor=#d5e8d4;strokeColor=#82b366;" vertex="1" parent="Bl0EzrdsrcNXTwOKAy7L-47">
          <mxGeometry x="15" y="184" width="70" height="30" as="geometry" />
        </mxCell>
        <mxCell id="Bl0EzrdsrcNXTwOKAy7L-48" value="" style="swimlane;startSize=0;" vertex="1" parent="Bl0EzrdsrcNXTwOKAy7L-43">
          <mxGeometry x="420" width="100" height="220" as="geometry">
            <mxRectangle x="20" width="90" height="30" as="alternateBounds" />
          </mxGeometry>
        </mxCell>
        <mxCell id="Bl0EzrdsrcNXTwOKAy7L-49" value="" style="swimlane;startSize=0;" vertex="1" parent="Bl0EzrdsrcNXTwOKAy7L-43">
          <mxGeometry x="520" width="100" height="220" as="geometry">
            <mxRectangle x="20" width="90" height="30" as="alternateBounds" />
          </mxGeometry>
        </mxCell>
        <mxCell id="Bl0EzrdsrcNXTwOKAy7L-50" value="" style="swimlane;startSize=0;" vertex="1" parent="Bl0EzrdsrcNXTwOKAy7L-43">
          <mxGeometry x="620" width="100" height="220" as="geometry">
            <mxRectangle x="20" width="90" height="30" as="alternateBounds" />
          </mxGeometry>
        </mxCell>
        <mxCell id="Bl0EzrdsrcNXTwOKAy7L-233" value="应收款科目调整" style="rounded=0;whiteSpace=wrap;html=1;" vertex="1" parent="Bl0EzrdsrcNXTwOKAy7L-50">
          <mxGeometry x="15" y="160" width="70" height="40" as="geometry" />
        </mxCell>
        <mxCell id="Bl0EzrdsrcNXTwOKAy7L-218" style="edgeStyle=orthogonalEdgeStyle;rounded=0;orthogonalLoop=1;jettySize=auto;html=1;exitX=0;exitY=0.5;exitDx=0;exitDy=0;" edge="1" parent="Bl0EzrdsrcNXTwOKAy7L-43" source="Bl0EzrdsrcNXTwOKAy7L-109" target="Bl0EzrdsrcNXTwOKAy7L-99">
          <mxGeometry relative="1" as="geometry" />
        </mxCell>
        <mxCell id="Bl0EzrdsrcNXTwOKAy7L-234" style="edgeStyle=orthogonalEdgeStyle;rounded=0;orthogonalLoop=1;jettySize=auto;html=1;exitX=1;exitY=0.5;exitDx=0;exitDy=0;entryX=0;entryY=0.5;entryDx=0;entryDy=0;" edge="1" parent="Bl0EzrdsrcNXTwOKAy7L-43" source="Bl0EzrdsrcNXTwOKAy7L-232" target="Bl0EzrdsrcNXTwOKAy7L-233">
          <mxGeometry relative="1" as="geometry" />
        </mxCell>
        <mxCell id="Bl0EzrdsrcNXTwOKAy7L-237" style="edgeStyle=orthogonalEdgeStyle;rounded=0;orthogonalLoop=1;jettySize=auto;html=1;exitX=0;exitY=0.5;exitDx=0;exitDy=0;entryX=1;entryY=0.25;entryDx=0;entryDy=0;" edge="1" parent="Bl0EzrdsrcNXTwOKAy7L-43" source="Bl0EzrdsrcNXTwOKAy7L-231" target="Bl0EzrdsrcNXTwOKAy7L-232">
          <mxGeometry relative="1" as="geometry" />
        </mxCell>
        <mxCell id="Bl0EzrdsrcNXTwOKAy7L-119" value="预约产品出库" style="swimlane;startSize=20;horizontal=0;html=1;" vertex="1" parent="Bl0EzrdsrcNXTwOKAy7L-2">
          <mxGeometry y="1440" width="720" height="220" as="geometry" />
        </mxCell>
        <mxCell id="Bl0EzrdsrcNXTwOKAy7L-150" value="" style="swimlane;startSize=0;" vertex="1" parent="Bl0EzrdsrcNXTwOKAy7L-119">
          <mxGeometry x="20" width="100" height="220" as="geometry">
            <mxRectangle x="20" width="90" height="30" as="alternateBounds" />
          </mxGeometry>
        </mxCell>
        <mxCell id="Bl0EzrdsrcNXTwOKAy7L-106" value="确定产品出库时间" style="rounded=0;whiteSpace=wrap;html=1;" vertex="1" parent="Bl0EzrdsrcNXTwOKAy7L-150">
          <mxGeometry x="4" y="30" width="78.5" height="50" as="geometry" />
        </mxCell>
        <mxCell id="Bl0EzrdsrcNXTwOKAy7L-152" value="" style="swimlane;startSize=0;" vertex="1" parent="Bl0EzrdsrcNXTwOKAy7L-119">
          <mxGeometry x="120" width="100" height="220" as="geometry">
            <mxRectangle x="20" width="90" height="30" as="alternateBounds" />
          </mxGeometry>
        </mxCell>
        <mxCell id="Bl0EzrdsrcNXTwOKAy7L-155" value="" style="swimlane;startSize=0;" vertex="1" parent="Bl0EzrdsrcNXTwOKAy7L-119">
          <mxGeometry x="220" width="100" height="220" as="geometry">
            <mxRectangle x="20" width="90" height="30" as="alternateBounds" />
          </mxGeometry>
        </mxCell>
        <mxCell id="Bl0EzrdsrcNXTwOKAy7L-154" value="发送确认出库单" style="rounded=0;whiteSpace=wrap;html=1;" vertex="1" parent="Bl0EzrdsrcNXTwOKAy7L-155">
          <mxGeometry x="12.5" y="30" width="78.5" height="50" as="geometry" />
        </mxCell>
        <mxCell id="Bl0EzrdsrcNXTwOKAy7L-162" value="发送服务单" style="rounded=0;whiteSpace=wrap;html=1;" vertex="1" parent="Bl0EzrdsrcNXTwOKAy7L-155">
          <mxGeometry x="12.5" y="120" width="78.5" height="50" as="geometry" />
        </mxCell>
        <mxCell id="Bl0EzrdsrcNXTwOKAy7L-157" value="" style="swimlane;startSize=0;" vertex="1" parent="Bl0EzrdsrcNXTwOKAy7L-119">
          <mxGeometry x="320" width="100" height="220" as="geometry">
            <mxRectangle x="20" width="90" height="30" as="alternateBounds" />
          </mxGeometry>
        </mxCell>
        <mxCell id="Bl0EzrdsrcNXTwOKAy7L-158" value="确认出库时间" style="rounded=0;whiteSpace=wrap;html=1;" vertex="1" parent="Bl0EzrdsrcNXTwOKAy7L-157">
          <mxGeometry x="11.5" y="30" width="78.5" height="50" as="geometry" />
        </mxCell>
        <mxCell id="Bl0EzrdsrcNXTwOKAy7L-160" value="" style="swimlane;startSize=0;" vertex="1" parent="Bl0EzrdsrcNXTwOKAy7L-119">
          <mxGeometry x="420" width="100" height="220" as="geometry">
            <mxRectangle x="20" width="90" height="30" as="alternateBounds" />
          </mxGeometry>
        </mxCell>
        <mxCell id="Bl0EzrdsrcNXTwOKAy7L-161" value="" style="swimlane;startSize=0;" vertex="1" parent="Bl0EzrdsrcNXTwOKAy7L-119">
          <mxGeometry x="520" width="100" height="220" as="geometry">
            <mxRectangle x="20" width="90" height="30" as="alternateBounds" />
          </mxGeometry>
        </mxCell>
        <mxCell id="Bl0EzrdsrcNXTwOKAy7L-163" value="" style="swimlane;startSize=0;" vertex="1" parent="Bl0EzrdsrcNXTwOKAy7L-119">
          <mxGeometry x="620" width="100" height="220" as="geometry">
            <mxRectangle x="20" width="90" height="30" as="alternateBounds" />
          </mxGeometry>
        </mxCell>
        <mxCell id="Bl0EzrdsrcNXTwOKAy7L-214" style="edgeStyle=orthogonalEdgeStyle;rounded=0;orthogonalLoop=1;jettySize=auto;html=1;exitX=1;exitY=0.5;exitDx=0;exitDy=0;entryX=0;entryY=0.5;entryDx=0;entryDy=0;" edge="1" parent="Bl0EzrdsrcNXTwOKAy7L-119" source="Bl0EzrdsrcNXTwOKAy7L-106" target="Bl0EzrdsrcNXTwOKAy7L-154">
          <mxGeometry relative="1" as="geometry" />
        </mxCell>
        <mxCell id="Bl0EzrdsrcNXTwOKAy7L-215" style="edgeStyle=orthogonalEdgeStyle;rounded=0;orthogonalLoop=1;jettySize=auto;html=1;exitX=1;exitY=0.5;exitDx=0;exitDy=0;entryX=0;entryY=0.5;entryDx=0;entryDy=0;" edge="1" parent="Bl0EzrdsrcNXTwOKAy7L-119" source="Bl0EzrdsrcNXTwOKAy7L-154" target="Bl0EzrdsrcNXTwOKAy7L-158">
          <mxGeometry relative="1" as="geometry" />
        </mxCell>
        <mxCell id="Bl0EzrdsrcNXTwOKAy7L-216" style="edgeStyle=orthogonalEdgeStyle;rounded=0;orthogonalLoop=1;jettySize=auto;html=1;exitX=0.5;exitY=1;exitDx=0;exitDy=0;entryX=0.5;entryY=0;entryDx=0;entryDy=0;" edge="1" parent="Bl0EzrdsrcNXTwOKAy7L-119" source="Bl0EzrdsrcNXTwOKAy7L-158" target="Bl0EzrdsrcNXTwOKAy7L-162">
          <mxGeometry relative="1" as="geometry" />
        </mxCell>
        <mxCell id="Bl0EzrdsrcNXTwOKAy7L-165" value="产品出库" style="swimlane;startSize=20;horizontal=0;html=1;" vertex="1" parent="Bl0EzrdsrcNXTwOKAy7L-2">
          <mxGeometry y="1660" width="720" height="220" as="geometry" />
        </mxCell>
        <mxCell id="Bl0EzrdsrcNXTwOKAy7L-196" value="" style="swimlane;startSize=0;" vertex="1" parent="Bl0EzrdsrcNXTwOKAy7L-165">
          <mxGeometry x="20" width="100" height="220" as="geometry">
            <mxRectangle x="20" width="90" height="30" as="alternateBounds" />
          </mxGeometry>
        </mxCell>
        <mxCell id="Bl0EzrdsrcNXTwOKAy7L-151" value="客户签字确认《细胞提取申请书》" style="rounded=0;whiteSpace=wrap;html=1;" vertex="1" parent="Bl0EzrdsrcNXTwOKAy7L-196">
          <mxGeometry x="10.75" y="20" width="78.5" height="50" as="geometry" />
        </mxCell>
        <mxCell id="Bl0EzrdsrcNXTwOKAy7L-96" value="在产品出库服务时需将客户的专家解读报告打印出来，在服务地点交由医生对客户进行面诊。" style="rounded=0;whiteSpace=wrap;html=1;" vertex="1" parent="Bl0EzrdsrcNXTwOKAy7L-196">
          <mxGeometry x="10.75" y="94" width="78.5" height="120" as="geometry" />
        </mxCell>
        <mxCell id="Bl0EzrdsrcNXTwOKAy7L-198" value="" style="swimlane;startSize=0;" vertex="1" parent="Bl0EzrdsrcNXTwOKAy7L-165">
          <mxGeometry x="120" width="100" height="220" as="geometry">
            <mxRectangle x="20" width="90" height="30" as="alternateBounds" />
          </mxGeometry>
        </mxCell>
        <mxCell id="Bl0EzrdsrcNXTwOKAy7L-199" value="面诊客户" style="rounded=0;whiteSpace=wrap;html=1;" vertex="1" parent="Bl0EzrdsrcNXTwOKAy7L-198">
          <mxGeometry x="11.5" y="130" width="78.5" height="50" as="geometry" />
        </mxCell>
        <mxCell id="Bl0EzrdsrcNXTwOKAy7L-200" value="" style="swimlane;startSize=0;" vertex="1" parent="Bl0EzrdsrcNXTwOKAy7L-165">
          <mxGeometry x="220" width="100" height="220" as="geometry">
            <mxRectangle x="20" width="90" height="30" as="alternateBounds" />
          </mxGeometry>
        </mxCell>
        <mxCell id="Bl0EzrdsrcNXTwOKAy7L-201" value="" style="swimlane;startSize=0;" vertex="1" parent="Bl0EzrdsrcNXTwOKAy7L-165">
          <mxGeometry x="320" width="100" height="220" as="geometry">
            <mxRectangle x="20" width="90" height="30" as="alternateBounds" />
          </mxGeometry>
        </mxCell>
        <mxCell id="Bl0EzrdsrcNXTwOKAy7L-203" value="" style="swimlane;startSize=0;" vertex="1" parent="Bl0EzrdsrcNXTwOKAy7L-165">
          <mxGeometry x="420" width="100" height="220" as="geometry">
            <mxRectangle x="20" width="90" height="30" as="alternateBounds" />
          </mxGeometry>
        </mxCell>
        <mxCell id="Bl0EzrdsrcNXTwOKAy7L-204" value="" style="swimlane;startSize=0;" vertex="1" parent="Bl0EzrdsrcNXTwOKAy7L-165">
          <mxGeometry x="520" width="100" height="220" as="geometry">
            <mxRectangle x="20" width="90" height="30" as="alternateBounds" />
          </mxGeometry>
        </mxCell>
        <mxCell id="Bl0EzrdsrcNXTwOKAy7L-206" value="" style="swimlane;startSize=0;" vertex="1" parent="Bl0EzrdsrcNXTwOKAy7L-165">
          <mxGeometry x="620" width="100" height="220" as="geometry">
            <mxRectangle x="20" width="90" height="30" as="alternateBounds" />
          </mxGeometry>
        </mxCell>
        <mxCell id="Bl0EzrdsrcNXTwOKAy7L-205" value="准备回输？" style="rounded=0;whiteSpace=wrap;html=1;" vertex="1" parent="Bl0EzrdsrcNXTwOKAy7L-206">
          <mxGeometry x="9.5" y="20" width="78.5" height="50" as="geometry" />
        </mxCell>
        <mxCell id="Bl0EzrdsrcNXTwOKAy7L-222" value="回输" style="rounded=1;whiteSpace=wrap;html=1;" vertex="1" parent="Bl0EzrdsrcNXTwOKAy7L-206">
          <mxGeometry x="17" y="135" width="71" height="40" as="geometry" />
        </mxCell>
        <mxCell id="Bl0EzrdsrcNXTwOKAy7L-208" style="edgeStyle=orthogonalEdgeStyle;rounded=0;orthogonalLoop=1;jettySize=auto;html=1;exitX=1;exitY=0.5;exitDx=0;exitDy=0;entryX=0;entryY=0.5;entryDx=0;entryDy=0;" edge="1" parent="Bl0EzrdsrcNXTwOKAy7L-165" source="Bl0EzrdsrcNXTwOKAy7L-151" target="Bl0EzrdsrcNXTwOKAy7L-205">
          <mxGeometry relative="1" as="geometry" />
        </mxCell>
        <mxCell id="Bl0EzrdsrcNXTwOKAy7L-209" style="edgeStyle=orthogonalEdgeStyle;rounded=0;orthogonalLoop=1;jettySize=auto;html=1;exitX=0.5;exitY=1;exitDx=0;exitDy=0;" edge="1" parent="Bl0EzrdsrcNXTwOKAy7L-165" source="Bl0EzrdsrcNXTwOKAy7L-205" target="Bl0EzrdsrcNXTwOKAy7L-199">
          <mxGeometry relative="1" as="geometry" />
        </mxCell>
        <mxCell id="Bl0EzrdsrcNXTwOKAy7L-211" style="edgeStyle=orthogonalEdgeStyle;rounded=0;orthogonalLoop=1;jettySize=auto;html=1;exitX=1;exitY=0.5;exitDx=0;exitDy=0;" edge="1" parent="Bl0EzrdsrcNXTwOKAy7L-165" source="Bl0EzrdsrcNXTwOKAy7L-96" target="Bl0EzrdsrcNXTwOKAy7L-199">
          <mxGeometry relative="1" as="geometry" />
        </mxCell>
        <mxCell id="Bl0EzrdsrcNXTwOKAy7L-223" style="edgeStyle=orthogonalEdgeStyle;rounded=0;orthogonalLoop=1;jettySize=auto;html=1;exitX=1;exitY=0.5;exitDx=0;exitDy=0;entryX=0;entryY=0.5;entryDx=0;entryDy=0;" edge="1" parent="Bl0EzrdsrcNXTwOKAy7L-165" source="Bl0EzrdsrcNXTwOKAy7L-199" target="Bl0EzrdsrcNXTwOKAy7L-222">
          <mxGeometry relative="1" as="geometry" />
        </mxCell>
        <mxCell id="Bl0EzrdsrcNXTwOKAy7L-88" style="edgeStyle=orthogonalEdgeStyle;rounded=0;orthogonalLoop=1;jettySize=auto;html=1;exitX=0;exitY=0.5;exitDx=0;exitDy=0;" edge="1" parent="Bl0EzrdsrcNXTwOKAy7L-2" source="Bl0EzrdsrcNXTwOKAy7L-86" target="Bl0EzrdsrcNXTwOKAy7L-82">
          <mxGeometry relative="1" as="geometry" />
        </mxCell>
        <mxCell id="Bl0EzrdsrcNXTwOKAy7L-112" style="edgeStyle=orthogonalEdgeStyle;rounded=0;orthogonalLoop=1;jettySize=auto;html=1;exitX=0.5;exitY=1;exitDx=0;exitDy=0;entryX=0.5;entryY=0;entryDx=0;entryDy=0;" edge="1" parent="Bl0EzrdsrcNXTwOKAy7L-2" source="Bl0EzrdsrcNXTwOKAy7L-98" target="Bl0EzrdsrcNXTwOKAy7L-104">
          <mxGeometry relative="1" as="geometry" />
        </mxCell>
        <mxCell id="Bl0EzrdsrcNXTwOKAy7L-117" style="edgeStyle=orthogonalEdgeStyle;rounded=0;orthogonalLoop=1;jettySize=auto;html=1;exitX=0.5;exitY=1;exitDx=0;exitDy=0;entryX=0;entryY=0.5;entryDx=0;entryDy=0;" edge="1" parent="Bl0EzrdsrcNXTwOKAy7L-2" source="Bl0EzrdsrcNXTwOKAy7L-97" target="Bl0EzrdsrcNXTwOKAy7L-104">
          <mxGeometry relative="1" as="geometry" />
        </mxCell>
        <mxCell id="Bl0EzrdsrcNXTwOKAy7L-217" style="edgeStyle=orthogonalEdgeStyle;rounded=0;orthogonalLoop=1;jettySize=auto;html=1;exitX=0;exitY=0.5;exitDx=0;exitDy=0;" edge="1" parent="Bl0EzrdsrcNXTwOKAy7L-2" source="Bl0EzrdsrcNXTwOKAy7L-99" target="Bl0EzrdsrcNXTwOKAy7L-106">
          <mxGeometry relative="1" as="geometry" />
        </mxCell>
        <mxCell id="Bl0EzrdsrcNXTwOKAy7L-220" style="edgeStyle=orthogonalEdgeStyle;rounded=0;orthogonalLoop=1;jettySize=auto;html=1;exitX=0.5;exitY=1;exitDx=0;exitDy=0;" edge="1" parent="Bl0EzrdsrcNXTwOKAy7L-2" source="Bl0EzrdsrcNXTwOKAy7L-105" target="Bl0EzrdsrcNXTwOKAy7L-92">
          <mxGeometry relative="1" as="geometry" />
        </mxCell>
        <mxCell id="Bl0EzrdsrcNXTwOKAy7L-221" style="edgeStyle=orthogonalEdgeStyle;rounded=0;orthogonalLoop=1;jettySize=auto;html=1;exitX=0.5;exitY=1;exitDx=0;exitDy=0;entryX=0.5;entryY=0;entryDx=0;entryDy=0;" edge="1" parent="Bl0EzrdsrcNXTwOKAy7L-2" source="Bl0EzrdsrcNXTwOKAy7L-162" target="Bl0EzrdsrcNXTwOKAy7L-205">
          <mxGeometry relative="1" as="geometry" />
        </mxCell>
        <mxCell id="Bl0EzrdsrcNXTwOKAy7L-224" style="edgeStyle=orthogonalEdgeStyle;rounded=0;orthogonalLoop=1;jettySize=auto;html=1;exitX=0;exitY=0.5;exitDx=0;exitDy=0;entryX=0;entryY=0.5;entryDx=0;entryDy=0;" edge="1" parent="Bl0EzrdsrcNXTwOKAy7L-2" source="Bl0EzrdsrcNXTwOKAy7L-105" target="Bl0EzrdsrcNXTwOKAy7L-79">
          <mxGeometry relative="1" as="geometry" />
        </mxCell>
        <mxCell id="Bl0EzrdsrcNXTwOKAy7L-94" value="" style="rounded=0;whiteSpace=wrap;html=1;" vertex="1" parent="1">
          <mxGeometry x="710" y="1990" width="78.5" height="50" as="geometry" />
        </mxCell>
        <mxCell id="Bl0EzrdsrcNXTwOKAy7L-226" value="&lt;div align=&quot;left&quot;&gt;（免疫细胞至少提前18天，干细胞需提前与运营主管沟通）&lt;/div&gt;&lt;div align=&quot;left&quot;&gt;客户经理选择预约时间，至少提前1天16:00前发送预约单（Reservation）邮件至运营邮箱，抄送财务部确认邮箱。&lt;/div&gt;&lt;div align=&quot;left&quot;&gt;（16:00前应提醒财务完成收款确认）&lt;/div&gt;" style="shape=callout;whiteSpace=wrap;html=1;perimeter=calloutPerimeter;align=left;" vertex="1" parent="1">
          <mxGeometry x="840" y="470" width="330" height="100" as="geometry" />
        </mxCell>
        <mxCell id="Bl0EzrdsrcNXTwOKAy7L-228" value="复苏还是桂林制备" style="rhombus;whiteSpace=wrap;html=1;" vertex="1" parent="1">
          <mxGeometry x="840" y="1100" width="80" height="80" as="geometry" />
        </mxCell>
        <mxCell id="Bl0EzrdsrcNXTwOKAy7L-292" style="edgeStyle=orthogonalEdgeStyle;rounded=0;orthogonalLoop=1;jettySize=auto;html=1;exitX=0.5;exitY=1;exitDx=0;exitDy=0;" edge="1" parent="1" source="Bl0EzrdsrcNXTwOKAy7L-240" target="Bl0EzrdsrcNXTwOKAy7L-291">
          <mxGeometry relative="1" as="geometry" />
        </mxCell>
        <mxCell id="Bl0EzrdsrcNXTwOKAy7L-240" value="自体间充质干细胞" style="rounded=0;whiteSpace=wrap;html=1;fillColor=#dae8fc;strokeColor=#6c8ebf;" vertex="1" parent="1">
          <mxGeometry x="1050" y="1720" width="80" height="40" as="geometry" />
        </mxCell>
        <mxCell id="Bl0EzrdsrcNXTwOKAy7L-321" style="edgeStyle=orthogonalEdgeStyle;rounded=0;orthogonalLoop=1;jettySize=auto;html=1;exitX=0.5;exitY=1;exitDx=0;exitDy=0;entryX=0.5;entryY=0;entryDx=0;entryDy=0;" edge="1" parent="1" source="Bl0EzrdsrcNXTwOKAy7L-241" target="Bl0EzrdsrcNXTwOKAy7L-316">
          <mxGeometry relative="1" as="geometry" />
        </mxCell>
        <mxCell id="Bl0EzrdsrcNXTwOKAy7L-241" value="青岛P3" style="rounded=0;whiteSpace=wrap;html=1;" vertex="1" parent="1">
          <mxGeometry x="1160" y="1830" width="80" height="40" as="geometry" />
        </mxCell>
        <mxCell id="Bl0EzrdsrcNXTwOKAy7L-276" style="edgeStyle=orthogonalEdgeStyle;rounded=0;orthogonalLoop=1;jettySize=auto;html=1;exitX=0.5;exitY=1;exitDx=0;exitDy=0;entryX=0.5;entryY=0;entryDx=0;entryDy=0;" edge="1" parent="1" source="Bl0EzrdsrcNXTwOKAy7L-242" target="Bl0EzrdsrcNXTwOKAy7L-243">
          <mxGeometry relative="1" as="geometry" />
        </mxCell>
        <mxCell id="Bl0EzrdsrcNXTwOKAy7L-277" style="edgeStyle=orthogonalEdgeStyle;rounded=0;orthogonalLoop=1;jettySize=auto;html=1;exitX=0.5;exitY=1;exitDx=0;exitDy=0;" edge="1" parent="1" source="Bl0EzrdsrcNXTwOKAy7L-242" target="Bl0EzrdsrcNXTwOKAy7L-251">
          <mxGeometry relative="1" as="geometry" />
        </mxCell>
        <mxCell id="Bl0EzrdsrcNXTwOKAy7L-332" style="edgeStyle=orthogonalEdgeStyle;rounded=0;orthogonalLoop=1;jettySize=auto;html=1;exitX=0.5;exitY=1;exitDx=0;exitDy=0;" edge="1" parent="1" source="Bl0EzrdsrcNXTwOKAy7L-242" target="Bl0EzrdsrcNXTwOKAy7L-268">
          <mxGeometry relative="1" as="geometry" />
        </mxCell>
        <mxCell id="Bl0EzrdsrcNXTwOKAy7L-242" value="干细胞" style="rounded=0;whiteSpace=wrap;html=1;" vertex="1" parent="1">
          <mxGeometry x="1010" y="1520" width="80" height="40" as="geometry" />
        </mxCell>
        <mxCell id="Bl0EzrdsrcNXTwOKAy7L-280" style="edgeStyle=orthogonalEdgeStyle;rounded=0;orthogonalLoop=1;jettySize=auto;html=1;exitX=0.5;exitY=1;exitDx=0;exitDy=0;" edge="1" parent="1" source="Bl0EzrdsrcNXTwOKAy7L-243" target="Bl0EzrdsrcNXTwOKAy7L-245">
          <mxGeometry relative="1" as="geometry" />
        </mxCell>
        <mxCell id="Bl0EzrdsrcNXTwOKAy7L-281" style="edgeStyle=orthogonalEdgeStyle;rounded=0;orthogonalLoop=1;jettySize=auto;html=1;exitX=0.5;exitY=1;exitDx=0;exitDy=0;entryX=0.5;entryY=0;entryDx=0;entryDy=0;" edge="1" parent="1" source="Bl0EzrdsrcNXTwOKAy7L-243" target="Bl0EzrdsrcNXTwOKAy7L-240">
          <mxGeometry relative="1" as="geometry" />
        </mxCell>
        <mxCell id="Bl0EzrdsrcNXTwOKAy7L-243" value="&lt;div&gt;&lt;span style=&quot;color: rgb(255, 0, 0);&quot;&gt;干细胞回输=存+打？&lt;/span&gt;&lt;/div&gt;" style="rounded=0;whiteSpace=wrap;html=1;" vertex="1" parent="1">
          <mxGeometry x="1130" y="1620" width="80" height="40" as="geometry" />
        </mxCell>
        <mxCell id="Bl0EzrdsrcNXTwOKAy7L-282" style="edgeStyle=orthogonalEdgeStyle;rounded=0;orthogonalLoop=1;jettySize=auto;html=1;exitX=0.5;exitY=1;exitDx=0;exitDy=0;entryX=0.5;entryY=0;entryDx=0;entryDy=0;" edge="1" parent="1" source="Bl0EzrdsrcNXTwOKAy7L-245" target="Bl0EzrdsrcNXTwOKAy7L-246">
          <mxGeometry relative="1" as="geometry" />
        </mxCell>
        <mxCell id="Bl0EzrdsrcNXTwOKAy7L-290" style="edgeStyle=orthogonalEdgeStyle;rounded=0;orthogonalLoop=1;jettySize=auto;html=1;exitX=0.5;exitY=1;exitDx=0;exitDy=0;entryX=0.5;entryY=0;entryDx=0;entryDy=0;" edge="1" parent="1" source="Bl0EzrdsrcNXTwOKAy7L-245" target="Bl0EzrdsrcNXTwOKAy7L-241">
          <mxGeometry relative="1" as="geometry" />
        </mxCell>
        <mxCell id="Bl0EzrdsrcNXTwOKAy7L-245" value="通用型充质干细胞" style="rounded=0;whiteSpace=wrap;html=1;fillColor=#dae8fc;strokeColor=#6c8ebf;" vertex="1" parent="1">
          <mxGeometry x="1210" y="1720" width="80" height="40" as="geometry" />
        </mxCell>
        <mxCell id="Bl0EzrdsrcNXTwOKAy7L-325" style="edgeStyle=orthogonalEdgeStyle;rounded=0;orthogonalLoop=1;jettySize=auto;html=1;exitX=0.5;exitY=1;exitDx=0;exitDy=0;entryX=1;entryY=0.5;entryDx=0;entryDy=0;" edge="1" parent="1" source="Bl0EzrdsrcNXTwOKAy7L-246" target="Bl0EzrdsrcNXTwOKAy7L-323">
          <mxGeometry relative="1" as="geometry" />
        </mxCell>
        <mxCell id="Bl0EzrdsrcNXTwOKAy7L-246" value="桂林P0-P5" style="rounded=0;whiteSpace=wrap;html=1;fillColor=#f8cecc;strokeColor=#b85450;" vertex="1" parent="1">
          <mxGeometry x="1256" y="1830" width="80" height="40" as="geometry" />
        </mxCell>
        <mxCell id="Bl0EzrdsrcNXTwOKAy7L-278" style="edgeStyle=orthogonalEdgeStyle;rounded=0;orthogonalLoop=1;jettySize=auto;html=1;exitX=0.5;exitY=1;exitDx=0;exitDy=0;entryX=0.5;entryY=0;entryDx=0;entryDy=0;" edge="1" parent="1" source="Bl0EzrdsrcNXTwOKAy7L-247" target="Bl0EzrdsrcNXTwOKAy7L-248">
          <mxGeometry relative="1" as="geometry" />
        </mxCell>
        <mxCell id="Bl0EzrdsrcNXTwOKAy7L-279" style="edgeStyle=orthogonalEdgeStyle;rounded=0;orthogonalLoop=1;jettySize=auto;html=1;exitX=0.5;exitY=1;exitDx=0;exitDy=0;entryX=0.5;entryY=0;entryDx=0;entryDy=0;" edge="1" parent="1" source="Bl0EzrdsrcNXTwOKAy7L-247" target="Bl0EzrdsrcNXTwOKAy7L-252">
          <mxGeometry relative="1" as="geometry" />
        </mxCell>
        <mxCell id="Bl0EzrdsrcNXTwOKAy7L-247" value="免疫" style="rounded=0;whiteSpace=wrap;html=1;" vertex="1" parent="1">
          <mxGeometry x="1390" y="1520" width="80" height="40" as="geometry" />
        </mxCell>
        <mxCell id="Bl0EzrdsrcNXTwOKAy7L-359" style="edgeStyle=orthogonalEdgeStyle;rounded=0;orthogonalLoop=1;jettySize=auto;html=1;exitX=0.5;exitY=1;exitDx=0;exitDy=0;entryX=0.5;entryY=0;entryDx=0;entryDy=0;" edge="1" parent="1" source="Bl0EzrdsrcNXTwOKAy7L-248" target="Bl0EzrdsrcNXTwOKAy7L-355">
          <mxGeometry relative="1" as="geometry" />
        </mxCell>
        <mxCell id="Bl0EzrdsrcNXTwOKAy7L-248" value="免疫细胞储存" style="rounded=0;whiteSpace=wrap;html=1;fillColor=#dae8fc;strokeColor=#6c8ebf;" vertex="1" parent="1">
          <mxGeometry x="1350" y="1620" width="80" height="40" as="geometry" />
        </mxCell>
        <mxCell id="Bl0EzrdsrcNXTwOKAy7L-307" style="edgeStyle=orthogonalEdgeStyle;rounded=0;orthogonalLoop=1;jettySize=auto;html=1;exitX=0.5;exitY=1;exitDx=0;exitDy=0;entryX=0.5;entryY=0;entryDx=0;entryDy=0;" edge="1" parent="1" source="Bl0EzrdsrcNXTwOKAy7L-249" target="Bl0EzrdsrcNXTwOKAy7L-266">
          <mxGeometry relative="1" as="geometry">
            <Array as="points">
              <mxPoint x="990" y="1780" />
              <mxPoint x="880" y="1780" />
            </Array>
          </mxGeometry>
        </mxCell>
        <mxCell id="Bl0EzrdsrcNXTwOKAy7L-249" value="脂肪源干细胞" style="rounded=0;whiteSpace=wrap;html=1;fillColor=#dae8fc;strokeColor=#6c8ebf;" vertex="1" parent="1">
          <mxGeometry x="950" y="1720" width="80" height="40" as="geometry" />
        </mxCell>
        <mxCell id="Bl0EzrdsrcNXTwOKAy7L-287" style="edgeStyle=orthogonalEdgeStyle;rounded=0;orthogonalLoop=1;jettySize=auto;html=1;exitX=0.5;exitY=1;exitDx=0;exitDy=0;entryX=0.5;entryY=0;entryDx=0;entryDy=0;" edge="1" parent="1" source="Bl0EzrdsrcNXTwOKAy7L-251" target="Bl0EzrdsrcNXTwOKAy7L-256">
          <mxGeometry relative="1" as="geometry" />
        </mxCell>
        <mxCell id="Bl0EzrdsrcNXTwOKAy7L-288" style="edgeStyle=orthogonalEdgeStyle;rounded=0;orthogonalLoop=1;jettySize=auto;html=1;exitX=0.5;exitY=1;exitDx=0;exitDy=0;entryX=0.5;entryY=0;entryDx=0;entryDy=0;" edge="1" parent="1" source="Bl0EzrdsrcNXTwOKAy7L-251" target="Bl0EzrdsrcNXTwOKAy7L-249">
          <mxGeometry relative="1" as="geometry" />
        </mxCell>
        <mxCell id="Bl0EzrdsrcNXTwOKAy7L-251" value="干细胞储存" style="rounded=0;whiteSpace=wrap;html=1;" vertex="1" parent="1">
          <mxGeometry x="900" y="1620" width="80" height="40" as="geometry" />
        </mxCell>
        <mxCell id="Bl0EzrdsrcNXTwOKAy7L-283" style="edgeStyle=orthogonalEdgeStyle;rounded=0;orthogonalLoop=1;jettySize=auto;html=1;exitX=0.5;exitY=1;exitDx=0;exitDy=0;entryX=0.5;entryY=0;entryDx=0;entryDy=0;" edge="1" parent="1" source="Bl0EzrdsrcNXTwOKAy7L-252" target="Bl0EzrdsrcNXTwOKAy7L-259">
          <mxGeometry relative="1" as="geometry" />
        </mxCell>
        <mxCell id="Bl0EzrdsrcNXTwOKAy7L-284" style="edgeStyle=orthogonalEdgeStyle;rounded=0;orthogonalLoop=1;jettySize=auto;html=1;exitX=0.5;exitY=1;exitDx=0;exitDy=0;entryX=0.5;entryY=0;entryDx=0;entryDy=0;" edge="1" parent="1" source="Bl0EzrdsrcNXTwOKAy7L-252" target="Bl0EzrdsrcNXTwOKAy7L-263">
          <mxGeometry relative="1" as="geometry" />
        </mxCell>
        <mxCell id="Bl0EzrdsrcNXTwOKAy7L-252" value="&lt;div&gt;&lt;span style=&quot;color: rgb(255, 0, 0);&quot;&gt;免疫细胞回输&lt;/span&gt;&lt;span style=&quot;color: rgb(255, 0, 0);&quot;&gt;=存+打？&lt;/span&gt;&lt;/div&gt;" style="rounded=0;whiteSpace=wrap;html=1;fillColor=#dae8fc;strokeColor=#6c8ebf;" vertex="1" parent="1">
          <mxGeometry x="1450" y="1620" width="80" height="40" as="geometry" />
        </mxCell>
        <mxCell id="Bl0EzrdsrcNXTwOKAy7L-274" style="edgeStyle=orthogonalEdgeStyle;rounded=0;orthogonalLoop=1;jettySize=auto;html=1;exitX=0.5;exitY=1;exitDx=0;exitDy=0;entryX=0.5;entryY=0;entryDx=0;entryDy=0;" edge="1" parent="1" source="Bl0EzrdsrcNXTwOKAy7L-255" target="Bl0EzrdsrcNXTwOKAy7L-242">
          <mxGeometry relative="1" as="geometry" />
        </mxCell>
        <mxCell id="Bl0EzrdsrcNXTwOKAy7L-275" style="edgeStyle=orthogonalEdgeStyle;rounded=0;orthogonalLoop=1;jettySize=auto;html=1;exitX=0.5;exitY=1;exitDx=0;exitDy=0;entryX=0.5;entryY=0;entryDx=0;entryDy=0;" edge="1" parent="1" source="Bl0EzrdsrcNXTwOKAy7L-255" target="Bl0EzrdsrcNXTwOKAy7L-247">
          <mxGeometry relative="1" as="geometry" />
        </mxCell>
        <mxCell id="Bl0EzrdsrcNXTwOKAy7L-255" value="产品选型" style="rounded=0;whiteSpace=wrap;html=1;" vertex="1" parent="1">
          <mxGeometry x="1220" y="1430" width="80" height="40" as="geometry" />
        </mxCell>
        <mxCell id="Bl0EzrdsrcNXTwOKAy7L-304" style="edgeStyle=orthogonalEdgeStyle;rounded=0;orthogonalLoop=1;jettySize=auto;html=1;exitX=0.5;exitY=1;exitDx=0;exitDy=0;entryX=0.5;entryY=0;entryDx=0;entryDy=0;" edge="1" parent="1" source="Bl0EzrdsrcNXTwOKAy7L-256" target="Bl0EzrdsrcNXTwOKAy7L-266">
          <mxGeometry relative="1" as="geometry" />
        </mxCell>
        <mxCell id="Bl0EzrdsrcNXTwOKAy7L-256" value="围产组织干细胞" style="rounded=0;whiteSpace=wrap;html=1;fillColor=#dae8fc;strokeColor=#6c8ebf;" vertex="1" parent="1">
          <mxGeometry x="840" y="1720" width="80" height="40" as="geometry" />
        </mxCell>
        <mxCell id="Bl0EzrdsrcNXTwOKAy7L-343" style="edgeStyle=orthogonalEdgeStyle;rounded=0;orthogonalLoop=1;jettySize=auto;html=1;exitX=0.5;exitY=1;exitDx=0;exitDy=0;entryX=0.5;entryY=0;entryDx=0;entryDy=0;" edge="1" parent="1" source="Bl0EzrdsrcNXTwOKAy7L-259" target="Bl0EzrdsrcNXTwOKAy7L-342">
          <mxGeometry relative="1" as="geometry" />
        </mxCell>
        <mxCell id="Bl0EzrdsrcNXTwOKAy7L-259" value="青岛P3" style="rounded=0;whiteSpace=wrap;html=1;" vertex="1" parent="1">
          <mxGeometry x="1450" y="1715" width="80" height="40" as="geometry" />
        </mxCell>
        <mxCell id="Bl0EzrdsrcNXTwOKAy7L-346" style="edgeStyle=orthogonalEdgeStyle;rounded=0;orthogonalLoop=1;jettySize=auto;html=1;exitX=0.5;exitY=1;exitDx=0;exitDy=0;entryX=1;entryY=0.5;entryDx=0;entryDy=0;" edge="1" parent="1" source="Bl0EzrdsrcNXTwOKAy7L-263" target="Bl0EzrdsrcNXTwOKAy7L-341">
          <mxGeometry relative="1" as="geometry" />
        </mxCell>
        <mxCell id="Bl0EzrdsrcNXTwOKAy7L-263" value="桂林P0-P5" style="rounded=0;whiteSpace=wrap;html=1;fillColor=#f8cecc;strokeColor=#b85450;" vertex="1" parent="1">
          <mxGeometry x="1560" y="1715" width="80" height="40" as="geometry" />
        </mxCell>
        <mxCell id="Bl0EzrdsrcNXTwOKAy7L-302" style="edgeStyle=orthogonalEdgeStyle;rounded=0;orthogonalLoop=1;jettySize=auto;html=1;exitX=0.5;exitY=1;exitDx=0;exitDy=0;entryX=0.5;entryY=0;entryDx=0;entryDy=0;" edge="1" parent="1" source="Bl0EzrdsrcNXTwOKAy7L-265" target="Bl0EzrdsrcNXTwOKAy7L-269">
          <mxGeometry relative="1" as="geometry" />
        </mxCell>
        <mxCell id="Bl0EzrdsrcNXTwOKAy7L-265" value="采样" style="rounded=0;whiteSpace=wrap;html=1;" vertex="1" parent="1">
          <mxGeometry x="1050" y="1930" width="80" height="40" as="geometry" />
        </mxCell>
        <mxCell id="Bl0EzrdsrcNXTwOKAy7L-305" style="edgeStyle=orthogonalEdgeStyle;rounded=0;orthogonalLoop=1;jettySize=auto;html=1;exitX=0.5;exitY=1;exitDx=0;exitDy=0;entryX=0.5;entryY=0;entryDx=0;entryDy=0;" edge="1" parent="1" source="Bl0EzrdsrcNXTwOKAy7L-266" target="Bl0EzrdsrcNXTwOKAy7L-270">
          <mxGeometry relative="1" as="geometry" />
        </mxCell>
        <mxCell id="Bl0EzrdsrcNXTwOKAy7L-266" value="采样" style="rounded=0;whiteSpace=wrap;html=1;" vertex="1" parent="1">
          <mxGeometry x="840" y="1810" width="80" height="40" as="geometry" />
        </mxCell>
        <mxCell id="Bl0EzrdsrcNXTwOKAy7L-268" value="&lt;span style=&quot;color: rgb(0, 0, 0);&quot;&gt;家族细胞库&lt;/span&gt;" style="rounded=0;whiteSpace=wrap;html=1;fillColor=#dae8fc;strokeColor=#6c8ebf;" vertex="1" parent="1">
          <mxGeometry x="1240" y="1620" width="80" height="40" as="geometry" />
        </mxCell>
        <mxCell id="Bl0EzrdsrcNXTwOKAy7L-318" style="edgeStyle=orthogonalEdgeStyle;rounded=0;orthogonalLoop=1;jettySize=auto;html=1;exitX=0;exitY=0.5;exitDx=0;exitDy=0;entryX=1;entryY=0.5;entryDx=0;entryDy=0;" edge="1" parent="1" source="Bl0EzrdsrcNXTwOKAy7L-269" target="Bl0EzrdsrcNXTwOKAy7L-308">
          <mxGeometry relative="1" as="geometry" />
        </mxCell>
        <mxCell id="Bl0EzrdsrcNXTwOKAy7L-319" style="edgeStyle=orthogonalEdgeStyle;rounded=0;orthogonalLoop=1;jettySize=auto;html=1;exitX=0.5;exitY=1;exitDx=0;exitDy=0;entryX=0.5;entryY=0;entryDx=0;entryDy=0;" edge="1" parent="1" source="Bl0EzrdsrcNXTwOKAy7L-269" target="Bl0EzrdsrcNXTwOKAy7L-310">
          <mxGeometry relative="1" as="geometry" />
        </mxCell>
        <mxCell id="Bl0EzrdsrcNXTwOKAy7L-269" value="提取P0" style="rounded=0;whiteSpace=wrap;html=1;" vertex="1" parent="1">
          <mxGeometry x="1050" y="1995" width="80" height="40" as="geometry" />
        </mxCell>
        <mxCell id="Bl0EzrdsrcNXTwOKAy7L-306" style="edgeStyle=orthogonalEdgeStyle;rounded=0;orthogonalLoop=1;jettySize=auto;html=1;exitX=0.5;exitY=1;exitDx=0;exitDy=0;entryX=0.5;entryY=0;entryDx=0;entryDy=0;" edge="1" parent="1" source="Bl0EzrdsrcNXTwOKAy7L-270" target="Bl0EzrdsrcNXTwOKAy7L-303">
          <mxGeometry relative="1" as="geometry" />
        </mxCell>
        <mxCell id="Bl0EzrdsrcNXTwOKAy7L-270" value="提取P0" style="rounded=0;whiteSpace=wrap;html=1;" vertex="1" parent="1">
          <mxGeometry x="840" y="1880" width="80" height="40" as="geometry" />
        </mxCell>
        <mxCell id="Bl0EzrdsrcNXTwOKAy7L-320" style="edgeStyle=orthogonalEdgeStyle;rounded=0;orthogonalLoop=1;jettySize=auto;html=1;exitX=0.5;exitY=1;exitDx=0;exitDy=0;entryX=0.5;entryY=0;entryDx=0;entryDy=0;" edge="1" parent="1" source="Bl0EzrdsrcNXTwOKAy7L-272" target="Bl0EzrdsrcNXTwOKAy7L-308">
          <mxGeometry relative="1" as="geometry" />
        </mxCell>
        <mxCell id="Bl0EzrdsrcNXTwOKAy7L-272" value="复苏" style="rounded=0;whiteSpace=wrap;html=1;" vertex="1" parent="1">
          <mxGeometry x="940" y="1830" width="80" height="40" as="geometry" />
        </mxCell>
        <mxCell id="Bl0EzrdsrcNXTwOKAy7L-296" style="edgeStyle=orthogonalEdgeStyle;rounded=0;orthogonalLoop=1;jettySize=auto;html=1;exitX=0;exitY=0.5;exitDx=0;exitDy=0;entryX=1;entryY=0.5;entryDx=0;entryDy=0;" edge="1" parent="1" source="Bl0EzrdsrcNXTwOKAy7L-291" target="Bl0EzrdsrcNXTwOKAy7L-272">
          <mxGeometry relative="1" as="geometry" />
        </mxCell>
        <mxCell id="Bl0EzrdsrcNXTwOKAy7L-298" style="edgeStyle=orthogonalEdgeStyle;rounded=0;orthogonalLoop=1;jettySize=auto;html=1;exitX=0.5;exitY=1;exitDx=0;exitDy=0;entryX=0.5;entryY=0;entryDx=0;entryDy=0;" edge="1" parent="1" source="Bl0EzrdsrcNXTwOKAy7L-291" target="Bl0EzrdsrcNXTwOKAy7L-265">
          <mxGeometry relative="1" as="geometry" />
        </mxCell>
        <mxCell id="Bl0EzrdsrcNXTwOKAy7L-299" value="" style="edgeStyle=orthogonalEdgeStyle;rounded=0;orthogonalLoop=1;jettySize=auto;html=1;" edge="1" parent="1" source="Bl0EzrdsrcNXTwOKAy7L-291" target="Bl0EzrdsrcNXTwOKAy7L-272">
          <mxGeometry relative="1" as="geometry" />
        </mxCell>
        <mxCell id="Bl0EzrdsrcNXTwOKAy7L-291" value="是否存过" style="rhombus;whiteSpace=wrap;html=1;" vertex="1" parent="1">
          <mxGeometry x="1050" y="1810" width="80" height="80" as="geometry" />
        </mxCell>
        <mxCell id="Bl0EzrdsrcNXTwOKAy7L-300" value="否" style="text;html=1;align=center;verticalAlign=middle;whiteSpace=wrap;rounded=0;" vertex="1" parent="1">
          <mxGeometry x="1080" y="1890" width="60" height="30" as="geometry" />
        </mxCell>
        <mxCell id="Bl0EzrdsrcNXTwOKAy7L-301" value="是" style="text;html=1;align=center;verticalAlign=middle;whiteSpace=wrap;rounded=0;" vertex="1" parent="1">
          <mxGeometry x="1010" y="1820" width="60" height="30" as="geometry" />
        </mxCell>
        <mxCell id="Bl0EzrdsrcNXTwOKAy7L-303" value="储存" style="rounded=0;whiteSpace=wrap;html=1;" vertex="1" parent="1">
          <mxGeometry x="840" y="1950" width="80" height="40" as="geometry" />
        </mxCell>
        <mxCell id="Bl0EzrdsrcNXTwOKAy7L-314" style="edgeStyle=orthogonalEdgeStyle;rounded=0;orthogonalLoop=1;jettySize=auto;html=1;exitX=0.5;exitY=1;exitDx=0;exitDy=0;entryX=0.5;entryY=0;entryDx=0;entryDy=0;" edge="1" parent="1" source="Bl0EzrdsrcNXTwOKAy7L-308" target="Bl0EzrdsrcNXTwOKAy7L-309">
          <mxGeometry relative="1" as="geometry" />
        </mxCell>
        <mxCell id="Bl0EzrdsrcNXTwOKAy7L-308" value="制备P0-P5" style="rounded=0;whiteSpace=wrap;html=1;fillColor=#f8cecc;strokeColor=#b85450;" vertex="1" parent="1">
          <mxGeometry x="940" y="1995" width="80" height="40" as="geometry" />
        </mxCell>
        <mxCell id="Bl0EzrdsrcNXTwOKAy7L-309" value="回输" style="rounded=0;whiteSpace=wrap;html=1;" vertex="1" parent="1">
          <mxGeometry x="940" y="2060" width="80" height="40" as="geometry" />
        </mxCell>
        <mxCell id="Bl0EzrdsrcNXTwOKAy7L-310" value="储存" style="rounded=0;whiteSpace=wrap;html=1;" vertex="1" parent="1">
          <mxGeometry x="1050" y="2060" width="80" height="40" as="geometry" />
        </mxCell>
        <mxCell id="Bl0EzrdsrcNXTwOKAy7L-322" style="edgeStyle=orthogonalEdgeStyle;rounded=0;orthogonalLoop=1;jettySize=auto;html=1;exitX=0.5;exitY=1;exitDx=0;exitDy=0;entryX=0.5;entryY=0;entryDx=0;entryDy=0;" edge="1" parent="1" source="Bl0EzrdsrcNXTwOKAy7L-316" target="Bl0EzrdsrcNXTwOKAy7L-317">
          <mxGeometry relative="1" as="geometry" />
        </mxCell>
        <mxCell id="Bl0EzrdsrcNXTwOKAy7L-316" value="&lt;span style=&quot;color: rgb(255, 0, 0);&quot;&gt;有复苏步骤吗？&lt;/span&gt;" style="rounded=0;whiteSpace=wrap;html=1;" vertex="1" parent="1">
          <mxGeometry x="1160" y="1900" width="80" height="40" as="geometry" />
        </mxCell>
        <mxCell id="Bl0EzrdsrcNXTwOKAy7L-324" style="edgeStyle=orthogonalEdgeStyle;rounded=0;orthogonalLoop=1;jettySize=auto;html=1;exitX=0.5;exitY=1;exitDx=0;exitDy=0;entryX=0.5;entryY=0;entryDx=0;entryDy=0;" edge="1" parent="1" source="Bl0EzrdsrcNXTwOKAy7L-317" target="Bl0EzrdsrcNXTwOKAy7L-323">
          <mxGeometry relative="1" as="geometry" />
        </mxCell>
        <mxCell id="Bl0EzrdsrcNXTwOKAy7L-317" value="制备P5" style="rounded=0;whiteSpace=wrap;html=1;" vertex="1" parent="1">
          <mxGeometry x="1161" y="1970" width="80" height="40" as="geometry" />
        </mxCell>
        <mxCell id="Bl0EzrdsrcNXTwOKAy7L-323" value="回输" style="rounded=0;whiteSpace=wrap;html=1;" vertex="1" parent="1">
          <mxGeometry x="1161" y="2040" width="80" height="40" as="geometry" />
        </mxCell>
        <mxCell id="Bl0EzrdsrcNXTwOKAy7L-330" value="&lt;span style=&quot;color: rgb(255, 0, 0);&quot;&gt;免疫细胞分自体/异体吗？&lt;br&gt;&lt;/span&gt;" style="text;html=1;align=center;verticalAlign=middle;whiteSpace=wrap;rounded=0;" vertex="1" parent="1">
          <mxGeometry x="1320" y="1525" width="60" height="30" as="geometry" />
        </mxCell>
        <mxCell id="Bl0EzrdsrcNXTwOKAy7L-335" value="①-⑦号产品" style="rounded=0;whiteSpace=wrap;html=1;fillColor=#dae8fc;strokeColor=#6c8ebf;" vertex="1" parent="1">
          <mxGeometry x="1530" y="1430" width="80" height="40" as="geometry" />
        </mxCell>
        <mxCell id="Bl0EzrdsrcNXTwOKAy7L-336" value="&lt;span style=&quot;color: rgb(255, 0, 0);&quot; data-mx-given-colors=&quot;{&amp;quot;color&amp;quot;:&amp;quot;rgb(255, 0, 0)&amp;quot;}&quot;&gt;是干细胞还是免疫？&lt;/span&gt;" style="text;whiteSpace=wrap;html=1;" vertex="1" parent="1">
          <mxGeometry x="1241" y="1640" width="110" height="40" as="geometry" />
        </mxCell>
        <mxCell id="Bl0EzrdsrcNXTwOKAy7L-339" value="&lt;span style=&quot;color: rgb(255, 0, 0);&quot;&gt;免疫细胞也是P0-P5吗？&lt;/span&gt;" style="text;html=1;align=center;verticalAlign=middle;whiteSpace=wrap;rounded=0;" vertex="1" parent="1">
          <mxGeometry x="1510" y="1660" width="76" height="30" as="geometry" />
        </mxCell>
        <mxCell id="Bl0EzrdsrcNXTwOKAy7L-345" style="edgeStyle=orthogonalEdgeStyle;rounded=0;orthogonalLoop=1;jettySize=auto;html=1;exitX=0.5;exitY=1;exitDx=0;exitDy=0;entryX=0.5;entryY=0;entryDx=0;entryDy=0;" edge="1" parent="1" source="Bl0EzrdsrcNXTwOKAy7L-340" target="Bl0EzrdsrcNXTwOKAy7L-341">
          <mxGeometry relative="1" as="geometry" />
        </mxCell>
        <mxCell id="Bl0EzrdsrcNXTwOKAy7L-340" value="制备P5" style="rounded=0;whiteSpace=wrap;html=1;" vertex="1" parent="1">
          <mxGeometry x="1450" y="1875" width="80" height="40" as="geometry" />
        </mxCell>
        <mxCell id="Bl0EzrdsrcNXTwOKAy7L-341" value="回输" style="rounded=0;whiteSpace=wrap;html=1;" vertex="1" parent="1">
          <mxGeometry x="1450" y="1955" width="80" height="40" as="geometry" />
        </mxCell>
        <mxCell id="Bl0EzrdsrcNXTwOKAy7L-344" style="edgeStyle=orthogonalEdgeStyle;rounded=0;orthogonalLoop=1;jettySize=auto;html=1;exitX=0.5;exitY=1;exitDx=0;exitDy=0;entryX=0.5;entryY=0;entryDx=0;entryDy=0;" edge="1" parent="1" source="Bl0EzrdsrcNXTwOKAy7L-342" target="Bl0EzrdsrcNXTwOKAy7L-340">
          <mxGeometry relative="1" as="geometry" />
        </mxCell>
        <mxCell id="Bl0EzrdsrcNXTwOKAy7L-342" value="&lt;span style=&quot;color: rgb(255, 0, 0);&quot;&gt;有复苏步骤吗？&lt;/span&gt;" style="rounded=0;whiteSpace=wrap;html=1;" vertex="1" parent="1">
          <mxGeometry x="1450" y="1795" width="80" height="40" as="geometry" />
        </mxCell>
        <mxCell id="Bl0EzrdsrcNXTwOKAy7L-347" value="&lt;span style=&quot;color: rgb(255, 0, 0);&quot;&gt;桂林做P0-P3吗？还是把血运去青岛?&lt;/span&gt;" style="text;html=1;align=center;verticalAlign=middle;whiteSpace=wrap;rounded=0;" vertex="1" parent="1">
          <mxGeometry x="1010" y="1965" width="60" height="30" as="geometry" />
        </mxCell>
        <mxCell id="Bl0EzrdsrcNXTwOKAy7L-348" value="&lt;span style=&quot;color: rgb(255, 0, 0);&quot;&gt;实验室有大致有哪几个流程？干细胞和免疫流程一样吗？分离完华通氏胶就得到进液氮罐的种子细胞吗？&lt;/span&gt;" style="text;html=1;align=center;verticalAlign=middle;whiteSpace=wrap;rounded=0;" vertex="1" parent="1">
          <mxGeometry x="840" y="2020" width="80" height="70" as="geometry" />
        </mxCell>
        <mxCell id="Bl0EzrdsrcNXTwOKAy7L-353" value="3个关键时间" style="rounded=0;whiteSpace=wrap;html=1;fillColor=#f8cecc;strokeColor=#b85450;" vertex="1" parent="1">
          <mxGeometry x="850" y="360" width="70" height="40" as="geometry" />
        </mxCell>
        <mxCell id="Bl0EzrdsrcNXTwOKAy7L-354" style="edgeStyle=orthogonalEdgeStyle;rounded=0;orthogonalLoop=1;jettySize=auto;html=1;exitX=0.5;exitY=1;exitDx=0;exitDy=0;entryX=0.5;entryY=0;entryDx=0;entryDy=0;" edge="1" parent="1" source="Bl0EzrdsrcNXTwOKAy7L-355" target="Bl0EzrdsrcNXTwOKAy7L-357">
          <mxGeometry relative="1" as="geometry" />
        </mxCell>
        <mxCell id="Bl0EzrdsrcNXTwOKAy7L-355" value="采样" style="rounded=0;whiteSpace=wrap;html=1;" vertex="1" parent="1">
          <mxGeometry x="1350" y="1695" width="80" height="40" as="geometry" />
        </mxCell>
        <mxCell id="Bl0EzrdsrcNXTwOKAy7L-356" style="edgeStyle=orthogonalEdgeStyle;rounded=0;orthogonalLoop=1;jettySize=auto;html=1;exitX=0.5;exitY=1;exitDx=0;exitDy=0;entryX=0.5;entryY=0;entryDx=0;entryDy=0;" edge="1" parent="1" source="Bl0EzrdsrcNXTwOKAy7L-357" target="Bl0EzrdsrcNXTwOKAy7L-358">
          <mxGeometry relative="1" as="geometry" />
        </mxCell>
        <mxCell id="Bl0EzrdsrcNXTwOKAy7L-357" value="提取" style="rounded=0;whiteSpace=wrap;html=1;" vertex="1" parent="1">
          <mxGeometry x="1350" y="1765" width="80" height="40" as="geometry" />
        </mxCell>
        <mxCell id="Bl0EzrdsrcNXTwOKAy7L-358" value="储存" style="rounded=0;whiteSpace=wrap;html=1;" vertex="1" parent="1">
          <mxGeometry x="1350" y="1835" width="80" height="40" as="geometry" />
        </mxCell>
      </root>
    </mxGraphModel>
  </diagram>
</mxfile>
